<?xml version="1.0" encoding="utf-8"?>
<!-- Generator: Adobe Illustrator 16.0.0, SVG Export Plug-In . SVG Version: 6.00 Build 0)  -->
<!DOCTYPE svg PUBLIC "-//W3C//DTD SVG 1.1//EN" "http://www.w3.org/Graphics/SVG/1.1/DTD/svg11.dtd">
<svg version="1.1" id="Layer_1" xmlns="http://www.w3.org/2000/svg" xmlns:xlink="http://www.w3.org/1999/xlink" x="0px" y="0px"
	 width="600px" height="220px" viewBox="0 0 600 220" enable-background="new 0 0 600 220" xml:space="preserve">
<g>
	<path fill="#7050A0" d="M73.672,158.833c-7.717,0-13.969-6.256-13.969-13.969c0-35.434,28.826-64.256,64.258-64.256
		c7.715,0,13.967,6.252,13.967,13.968c0,7.714-6.252,13.968-13.967,13.968c-20.027,0-36.32,16.293-36.32,36.32
		C87.641,152.577,81.385,158.833,73.672,158.833"/>
	<path fill="#7050A0" d="M121.166,206.329c-7.717,0-13.969-6.258-13.969-13.971c0-7.717,6.252-13.969,13.969-13.969
		c20.027,0,36.32-16.293,36.32-36.32V24.45c0-7.716,6.254-13.971,13.967-13.971c7.717,0,13.971,6.255,13.971,13.971v117.619
		C185.424,177.502,156.6,206.329,121.166,206.329"/>
	<path fill="#7050A0" d="M74.488,206.329L74.488,206.329c-35.432,0-64.256-28.826-64.256-64.26v-5.59
		c0-7.713,6.252-13.967,13.969-13.967c7.713,0,13.969,6.254,13.969,13.967v5.59c0,20.027,16.293,36.32,36.318,36.32
		c7.717,0,13.971,6.252,13.971,13.969C88.459,200.071,82.205,206.329,74.488,206.329"/>
	<path fill="#7050A0" d="M483.605,178.389c-7.717,0-13.971-6.254-13.971-13.969V24.543c0-7.714,6.254-13.968,13.971-13.968
		c7.713,0,13.967,6.254,13.967,13.968V164.42C497.572,172.135,491.318,178.389,483.605,178.389"/>
	<path fill="#7050A0" d="M575.801,164.418c-7.717,0-13.971-6.256-13.971-13.969v-5.59c0-20.025-16.293-36.316-36.318-36.316
		c-7.717,0-13.969-6.257-13.969-13.971c0-7.716,6.252-13.971,13.969-13.971c35.432,0,64.256,28.828,64.256,64.258v5.59
		C589.768,158.163,583.516,164.418,575.801,164.418"/>
	<path fill="#7050A0" d="M24.201,108.357c-3.678,0-7.275-1.496-9.879-4.09c-2.605-2.605-4.09-6.202-4.09-9.878
		c0-3.679,1.484-7.278,4.09-9.881c2.604-2.603,6.201-4.087,9.879-4.087s7.273,1.484,9.879,4.087s4.09,6.202,4.09,9.881
		c0,3.676-1.484,7.272-4.09,9.878C31.475,106.861,27.879,108.357,24.201,108.357"/>
	<path fill="#7050A0" d="M575.801,206.329c-3.68,0-7.275-1.498-9.881-4.09c-2.604-2.605-4.09-6.203-4.09-9.881
		c0-3.676,1.486-7.277,4.09-9.879c2.605-2.605,6.201-4.09,9.881-4.09c3.676,0,7.271,1.484,9.877,4.09
		c2.605,2.602,4.09,6.203,4.09,9.879c0,3.678-1.484,7.275-4.09,9.881C583.072,204.831,579.477,206.329,575.801,206.329"/>
	<path fill="#7050A0" d="M397.49,209.522c-13.947,0-27.486-4.41-38.941-12.818c-6.469-4.746-7.863-13.84-3.113-20.307
		c4.748-6.469,13.84-7.865,20.309-3.115c7.965,5.848,17.73,8.24,27.494,6.744c9.766-1.5,18.365-6.709,24.211-14.678
		c10.498-14.301,9.344-34.105-2.748-47.09c-13.896-14.928-37.35-15.768-52.277-1.865c-2.996,2.787-5.49,6.027-7.416,9.633
		c-4.359,8.16-5.504,17.59-3.225,26.555c1.979,7.777-2.723,15.684-10.5,17.66c-7.771,1.973-15.684-2.725-17.66-10.498
		c-4.07-16.008-2.023-32.844,5.758-47.41c3.443-6.44,7.896-12.229,13.244-17.205c26.652-24.82,68.525-23.324,93.342,3.331
		c21.586,23.183,23.65,58.548,4.904,84.085c-10.438,14.219-25.789,23.525-43.229,26.203
		C404.252,209.266,400.857,209.522,397.49,209.522"/>
	<path fill="#7050A0" d="M258.168,209.481c-13.568,0-27.246-4.15-38.996-12.777c-26.313-19.313-34.551-55.582-19.17-84.367
		c3.445-6.444,7.902-12.232,13.246-17.209c11.115-10.354,25.574-16.594,40.711-17.574c7.99-0.511,14.92,5.558,15.436,13.563
		c0.52,8.008-5.553,14.916-13.559,15.433c-8.592,0.558-16.473,3.962-22.791,9.845c-2.99,2.787-5.486,6.027-7.414,9.637
		c-8.615,16.121-4,36.438,10.732,47.252c16.445,12.064,39.639,8.512,51.707-7.93c10.498-14.305,9.346-34.109-2.748-47.098
		c-5.467-5.871-5.139-15.063,0.736-20.528c5.869-5.47,15.064-5.143,20.529,0.729c21.59,23.186,23.65,58.553,4.906,84.088
		C298.568,200.149,278.496,209.481,258.168,209.481"/>
</g>
</svg>
